# xmcd
#
# Track frame offsets: 
#        150
#        17731
#        36825
#        60344
#        81177
#        99522
#        119919
#        146574
#        164933
#        186757
#        211431
#        232433
#        253230
#        274679
#        298746
#        317391
#
# Disc length: 4557 seconds
#
# Revision: 2
# Processed by: cddbd v1.5.2PL0 Copyright (c) Steve Scherf et al.
# Submitted via: ExactAudioCopy v1.3
#
DISCID=fa11cb10
DTITLE=Various Artist - Philadelphia International Records: The 40th 
DTITLE=Anniversary Box Set [CD10)
DYEAR=2012
DGENRE=Soul
TTITLE0=The O'Jays - Love You Direct
TTITLE1=Phyllis Hyman - Ain't You Had Enough Love
TTITLE2=The Dells - Somebody's Gotta Move
TTITLE3=Shirley Jones - Do You Get Enough Love
TTITLE4=Phyllis Hyman - First Time Together
TTITLE5=Patti LaBelle - I Can't Forget You
TTITLE6=The Stylistics - Hurry Up This Way Again
TTITLE7=Dee Dee Sharp Gamble - Easy Money
TTITLE8=The O'Jays - Summer Fling
TTITLE9=Phyllis Hyman - This Too Shall Pass
TTITLE10=The Dells - Baby Don't Go Away Mad
TTITLE11=Shirley Jones - She Knew About Me
TTITLE12=Patti LaBelle - If Only You Knew
TTITLE13=The O'Jays - Extraordinary Girl
TTITLE14=Teddy Pendergrass - Heaven Only Knows
TTITLE15=The Jones Girls - Baby Don't Go Yet
EXTD=
EXTT0=
EXTT1=
EXTT2=
EXTT3=
EXTT4=
EXTT5=
EXTT6=
EXTT7=
EXTT8=
EXTT9=
EXTT10=
EXTT11=
EXTT12=
EXTT13=
EXTT14=
EXTT15=
PLAYORDER=
